PathFileType	4	(X/Y/Z)	C:\Github\FootballMatch-and-Movement-Analysis\output\test Exam_2026-03-06_135002_tvc2_Sports2D\test Exam_2026-03-06_135002_tvc2_Sports2D_px_person00.trc
DataRate	CameraRate	NumFrames	NumMarkers	Units	OrigDataRate	OrigDataStartFrame	OrigNumFrames
30.0	30.0	5	22	m	30.0	129	516
Frame#	Time	Hip			RHip			RKnee			RAnkle			RBigToe			RSmallToe			RHeel			LHip			LKnee			LAnkle			LBigToe			LSmallToe			LHeel			Neck			Head			Nose			RShoulder			RElbow			RWrist			LShoulder			LElbow			LWrist			
		X1	Y1	Z1	X2	Y2	Z2	X3	Y3	Z3	X4	Y4	Z4	X5	Y5	Z5	X6	Y6	Z6	X7	Y7	Z7	X8	Y8	Z8	X9	Y9	Z9	X10	Y10	Z10	X11	Y11	Z11	X12	Y12	Z12	X13	Y13	Z13	X14	Y14	Z14	X15	Y15	Z15	X16	Y16	Z16	X17	Y17	Z17	X18	Y18	Z18	X19	Y19	Z19	X20	Y20	Z20	X21	Y21	Z21	X22	Y22	Z22
129	4.3083495145631066	336.0179422188803	696.8293613594082	0.0	298.0317202897108	705.1406525628106	0.0	301.96630500680135	861.734654491098	0.0	310.172133479305	1004.3647087266542	0.0	300.3361887681587	1064.6466527722614	0.0	280.6444473776214	1057.3405485295204	0.0	316.7555546946012	1023.3539256541881	0.0	381.15659588318175	701.5471709865967	0.0	402.5839413396603	856.7044685053509	0.0	422.67838668701546	996.3505792992252	0.0	434.2333085502884	1057.7422288074033	0.0	453.9013059194444	1047.199778011623	0.0	416.107979060644	1010.4721822135283	0.0	323.9737974772624	435.5802890133352	0.0	309.4221421366591	329.4010368506552	0.0	307.7955327619603	388.84258507472475	0.0	257.99040041940793	483.96620153514675	0.0	192.5942789694091	547.3747468239961	0.0	204.5520499583246	600.2758484641762	0.0	409.29564125912066	473.0998807998998	0.0	482.50108265376616	550.1785248654282	0.0	437.3859173973311	636.8477882183688	0.0
130	4.341747572815534	333.14833250602607	696.4317244365326	0.0	294.51719009284653	705.3503280786443	0.0	300.3013957425417	864.330131083169	0.0	309.6928723857684	1006.9579975275578	0.0	300.6294953408984	1068.5274076464757	0.0	280.6703382858695	1061.5611864109246	0.0	317.8852888544535	1023.9810617879708	0.0	377.5422331923653	702.2275688932395	0.0	399.12414057937343	855.2731508215043	0.0	422.7255397130473	994.1665125305611	0.0	433.10740454443004	1057.651935172485	0.0	454.21423781021457	1046.7531910252935	0.0	416.98949566274604	1007.8809298058259	0.0	320.5677415866403	435.9496914271208	0.0	305.55625943207383	329.55067106290767	0.0	304.13361849974797	388.7793794586619	0.0	254.22309011856356	484.3528934483534	0.0	188.96492703523944	548.04816787685	0.0	210.10451112027238	610.9599346212965	0.0	405.23335111830744	472.51307022234914	0.0	479.27120509566	550.8446990689043	0.0	433.2280619000994	636.79397080066	0.0
131	4.375145631067961	330.39441386324654	695.5726840443283	0.0	290.9884543139874	705.1888874482239	0.0	297.9913543292588	865.7376032409873	0.0	308.7915431435683	1007.6947223042929	0.0	300.75172386081357	1069.9750726965751	0.0	280.6822146325095	1062.9886153098719	0.0	318.1638988743225	1024.9645197937402	0.0	374.4161174383004	702.271065275165	0.0	395.27252734183816	853.3802406188946	0.0	421.95244101754827	990.2128561029624	0.0	431.03480630604616	1056.8986929082732	0.0	454.2834069360072	1045.876857206114	0.0	417.99127138212475	1003.8385608042406	0.0	317.42665378593426	436.34844869274326	0.0	301.8594690426233	329.05799256268114	0.0	301.190359389937	388.8255222103899	0.0	250.7094999510506	484.6949117166084	0.0	185.7117072513659	549.1951147894478	0.0	215.7058002741304	619.8684544801708	0.0	401.6444801142552	472.10470166972016	0.0	476.4616087554751	551.789250796827	0.0	428.6465737779274	636.8796819366592	0.0
132	4.408543689320388	327.4129676474299	694.5555096506268	0.0	287.81518610227823	704.7840982976837	0.0	295.85715772883333	866.3796522601705	0.0	307.51705292228655	1007.5807914248379	0.0	300.25376054633114	1069.1743547072101	0.0	280.85631381206974	1062.2916309314194	0.0	317.73151597538015	1025.8420481305109	0.0	371.5555299609349	701.547515909865	0.0	391.9212479126681	851.9658274915324	0.0	419.58256384699297	986.1290958224561	0.0	428.55751105997604	1055.0623526343545	0.0	453.037322102339	1044.1757043090347	0.0	416.27738130655894	999.5284551762534	0.0	314.22208795225265	436.8600056833179	0.0	298.6768929065524	328.63751539135444	0.0	298.4563515008033	388.87873440859147	0.0	247.1395367472009	484.700565548363	0.0	183.1367678973961	551.1607770427206	0.0	219.98072192795405	625.7402517125079	0.0	398.7148056698692	472.06088796833023	0.0	473.5255969813558	552.6118350449947	0.0	424.9955878145845	636.6108237636507	0.0
133	4.441941747572815	324.73056418245005	693.4889990677668	0.0	285.16689518094915	704.3580382422799	0.0	294.53846797390935	866.8365316400398	0.0	306.29789552469754	1007.7009182528143	0.0	299.7011295484474	1068.0802849403522	0.0	281.366730788004	1061.9386205214807	0.0	317.1790364836718	1025.5100466890474	0.0	368.77078862412833	700.0631616766034	0.0	389.5049859948954	851.1745180214946	0.0	415.60245700877374	984.1306899337575	0.0	426.1767272384679	1053.4113219733633	0.0	449.975178638788	1042.4117568816887	0.0	410.8200113515536	996.8586289994649	0.0	310.8291512952212	437.1840229338543	0.0	296.0146045921484	329.19598265222317	0.0	295.5031126516787	388.7934707566488	0.0	243.27968661275938	484.5794523730348	0.0	181.61156581619633	553.8824086317704	0.0	222.53188114454562	628.10471308926	0.0	395.8332224391215	472.24286338624825	0.0	470.0907806924166	553.4465030547434	0.0	422.81570949296844	635.5306386760749	0.0
